# xmcd
#
# Track frame offsets:
#	150
#	16579
#	33332
#	55601
#	76840
#	92654
#	112238
#	130464
#	151307
#	170230
#	184327
#	201374
#	213746
#	232189
#	249666
#
# Disc length: 3602 seconds
#
# Revision: 1
# Processed by: cddbd v1.5.1PL0 Copyright (c) Steve Scherf et al.
# Submitted via: audiograbber 1.83.01
#
DISCID=d40e100f
DTITLE=Ultimate Moods To Chillout - CD 10
DYEAR=2003
DGENRE=Ambient
TTITLE0=Mary Mc Dowell - Only Time
TTITLE1=Mario Barchetta - Romanza
TTITLE2=Ross Linley - Little Skelling
TTITLE3=Kelly O´Neill - Spente Le Stelle
TTITLE4=Wild Horse - Indian Spirits
TTITLE5=Nancy Carr - Milagre
TTITLE6=Claudia Ponte and Mario Barchetta - Con Te Partiro (Time To Say Goodbye)
TTITLE7=Mburu - The Sun People
TTITLE8=Tounkara - Marta´s Song
TTITLE9=Massini - Kiato
TTITLE10=Mary Mc Dowell - Marble Halls
TTITLE11=Waititu - Elements
TTITLE12=Kevin Toomey - Moorland
TTITLE13=Claudia Ponte - Who Wants To Live Forever
TTITLE14=Mario Barchetta - La Luna Che Non C´ E
EXTD=
EXTT0=
EXTT1=
EXTT2=
EXTT3=
EXTT4=
EXTT5=
EXTT6=
EXTT7=
EXTT8=
EXTT9=
EXTT10=
EXTT11=
EXTT12=
EXTT13=
EXTT14=
PLAYORDER=
